<svg xmlns="http://www.w3.org/2000/svg" width="28" height="28" viewBox="0 0 28 28">
  <g id="组_28369" data-name="组 28369" transform="translate(-16 -8)">
    <g id="Ico-LocationCity" transform="translate(16 8)">
      <rect id="矩形_7957" data-name="矩形 7957" width="28" height="28" fill="none"/>
      <g id="组_28103" data-name="组 28103" transform="translate(2 2)">
        <path id="路径_19294" data-name="路径 19294" d="M0,0H24V24H0Z" fill="none"/>
        <path id="路径_19295" data-name="路径 19295" d="M15,11V5L12,2,9,5V7H3V21H21V11ZM7,19H5V17H7Zm0-4H5V13H7Zm0-4H5V9H7Zm6,8H11V17h2Zm0-4H11V13h2Zm0-4H11V9h2Zm0-4H11V5h2Zm6,12H17V17h2Zm0-4H17V13h2Z" transform="translate(-3 -2)"/>
      </g>
    </g>
    <g id="组_28195" data-name="组 28195" transform="translate(-1744 23505)">
      <circle id="椭圆_4910" data-name="椭圆 4910" cx="6" cy="6" r="6" transform="translate(1772 -23485)" fill="#fff"/>
      <path id="add_circle" d="M85.4-871h1.2v-2.4H89v-1.2H86.6V-877H85.4v2.4H83v1.2h2.4Zm.6,3a5.842,5.842,0,0,1-2.34-.472,6.059,6.059,0,0,1-1.9-1.283,6.059,6.059,0,0,1-1.283-1.9A5.843,5.843,0,0,1,80-874a5.842,5.842,0,0,1,.473-2.34,6.059,6.059,0,0,1,1.283-1.905,6.059,6.059,0,0,1,1.9-1.282A5.842,5.842,0,0,1,86-880a5.843,5.843,0,0,1,2.34.473,6.059,6.059,0,0,1,1.9,1.282,6.059,6.059,0,0,1,1.283,1.905A5.842,5.842,0,0,1,92-874a5.843,5.843,0,0,1-.472,2.34,6.059,6.059,0,0,1-1.283,1.9,6.059,6.059,0,0,1-1.9,1.283A5.842,5.842,0,0,1,86-868Zm0-1.2a4.633,4.633,0,0,0,3.4-1.395A4.633,4.633,0,0,0,90.8-874a4.633,4.633,0,0,0-1.4-3.4,4.633,4.633,0,0,0-3.4-1.4,4.633,4.633,0,0,0-3.4,1.4A4.633,4.633,0,0,0,81.2-874a4.633,4.633,0,0,0,1.395,3.405A4.633,4.633,0,0,0,86-869.2ZM86-874Z" transform="translate(1692 -22605)"/>
    </g>
  </g>
</svg>
