<svg xmlns="http://www.w3.org/2000/svg" width="28" height="28" viewBox="0 0 28 28">
  <g id="组_28194" data-name="组 28194" transform="translate(-16 -8)">
    <g id="Ico-Person" transform="translate(16 8)">
      <g id="组_28100" data-name="组 28100">
        <path id="路径_19291" data-name="路径 19291" d="M0,0H24V24H0Z" fill="none"/>
        <path id="路径_19292" data-name="路径 19292" d="M12,6a2,2,0,1,1-2,2,2.006,2.006,0,0,1,2-2m0,10c2.7,0,5.8,1.29,6,2H6c.23-.72,3.31-2,6-2M12,4a4,4,0,1,0,4,4A4,4,0,0,0,12,4Zm0,10c-2.67,0-8,1.34-8,4v2H20V18C20,15.34,14.67,14,12,14Z"/>
      </g>
      <rect id="矩形_7957" data-name="矩形 7957" width="28" height="28" fill="none"/>
    </g>
    <g id="组_28193" data-name="组 28193" transform="translate(-1744 23505)">
      <circle id="椭圆_4910" data-name="椭圆 4910" cx="6" cy="6" r="6" transform="translate(1772 -23485)" fill="#fff"/>
      <path id="add_circle" d="M85.4-871h1.2v-2.4H89v-1.2H86.6V-877H85.4v2.4H83v1.2h2.4Zm.6,3a5.842,5.842,0,0,1-2.34-.472,6.059,6.059,0,0,1-1.9-1.283,6.059,6.059,0,0,1-1.283-1.9A5.843,5.843,0,0,1,80-874a5.842,5.842,0,0,1,.473-2.34,6.059,6.059,0,0,1,1.283-1.905,6.059,6.059,0,0,1,1.9-1.282A5.842,5.842,0,0,1,86-880a5.843,5.843,0,0,1,2.34.473,6.059,6.059,0,0,1,1.9,1.282,6.059,6.059,0,0,1,1.283,1.905A5.842,5.842,0,0,1,92-874a5.843,5.843,0,0,1-.472,2.34,6.059,6.059,0,0,1-1.283,1.9,6.059,6.059,0,0,1-1.9,1.283A5.842,5.842,0,0,1,86-868Zm0-1.2a4.633,4.633,0,0,0,3.4-1.395A4.633,4.633,0,0,0,90.8-874a4.633,4.633,0,0,0-1.4-3.4,4.633,4.633,0,0,0-3.4-1.4,4.633,4.633,0,0,0-3.4,1.4A4.633,4.633,0,0,0,81.2-874a4.633,4.633,0,0,0,1.395,3.405A4.633,4.633,0,0,0,86-869.2ZM86-874Z" transform="translate(1692 -22605)"/>
    </g>
  </g>
</svg>
