<svg id="组_28180" data-name="组 28180" xmlns="http://www.w3.org/2000/svg" width="24" height="24" viewBox="0 0 24 24">
  <g id="组_28178" data-name="组 28178">
    <rect id="矩形_7965" data-name="矩形 7965" width="24" height="24" fill="none"/>
  </g>
  <g id="组_28179" data-name="组 28179" transform="translate(3 3)">
    <path id="路径_19604" data-name="路径 19604" d="M11,7v5.41l2.36,2.36,1.04-1.79L13,11.59V7Zm10,5A8.991,8.991,0,0,0,5,6.36V4H3v6H9V8H6.26A7,7,0,0,1,19,12ZM10.86,18.91A7.015,7.015,0,0,1,5.08,13H3.06A9,9,0,0,0,12,21h.07Z" transform="translate(-3 -3)"/>
  </g>
  <path id="路径_19605" data-name="路径 19605" d="M9,5.25A1.25,1.25,0,1,1,7.75,6.5,1.254,1.254,0,0,1,9,5.25M9,11.5c1.688,0,3.625.806,3.75,1.25H5.25C5.394,12.3,7.319,11.5,9,11.5M9,4a2.5,2.5,0,1,0,2.5,2.5A2.5,2.5,0,0,0,9,4Zm0,6.25c-1.669,0-5,.838-5,2.5V14H14V12.75C14,11.088,10.669,10.25,9,10.25Z" transform="translate(9 9.001)"/>
</svg>
