<svg id="组_28181" data-name="组 28181" xmlns="http://www.w3.org/2000/svg" width="24" height="24" viewBox="0 0 24 24">
  <g id="组_28178" data-name="组 28178">
    <rect id="矩形_7965" data-name="矩形 7965" width="24" height="24" fill="none"/>
  </g>
  <g id="组_28179" data-name="组 28179">
    <path id="路径_19604" data-name="路径 19604" d="M11,7v5.41l2.36,2.36,1.04-1.79L13,11.59V7Zm10,5A8.991,8.991,0,0,0,5,6.36V4H3v6H9V8H6.26A7,7,0,0,1,19,12ZM10.86,18.91A7.015,7.015,0,0,1,5.08,13H3.06A9,9,0,0,0,12,21h.07Z"/>
  </g>
  <path id="路径_19606" data-name="路径 19606" d="M1.667,9.8A.989.989,0,0,0,2.5,8.716.989.989,0,0,0,1.667,7.63.989.989,0,0,0,.833,8.716.989.989,0,0,0,1.667,9.8Zm.471.6a2.252,2.252,0,0,0-.471-.054,2.334,2.334,0,0,0-1.158.315A1.14,1.14,0,0,0,0,11.667v.853H1.875v-.875A3.027,3.027,0,0,1,2.138,10.4Zm6.2-.6a.989.989,0,0,0,.833-1.087A.989.989,0,0,0,8.333,7.63.989.989,0,0,0,7.5,8.716.989.989,0,0,0,8.333,9.8ZM10,11.667a1.14,1.14,0,0,0-.508-1.005,2.334,2.334,0,0,0-1.158-.315,2.252,2.252,0,0,0-.471.054,3.027,3.027,0,0,1,.262,1.244v.875H10Zm-3.233-1.51A3.517,3.517,0,0,0,5,9.667a3.573,3.573,0,0,0-1.767.489A1.707,1.707,0,0,0,2.5,11.645v.875h5v-.875A1.707,1.707,0,0,0,6.767,10.156Zm-3.4,1.277c.038-.125.054-.212.379-.375a2.754,2.754,0,0,1,2.517,0c.321.163.338.25.379.375ZM5,7.087a.494.494,0,0,1,.417.543A.494.494,0,0,1,5,8.173a.494.494,0,0,1-.417-.543A.494.494,0,0,1,5,7.087M5,6A1.476,1.476,0,0,0,3.75,7.63,1.476,1.476,0,0,0,5,9.26,1.476,1.476,0,0,0,6.25,7.63,1.476,1.476,0,0,0,5,6Z" transform="translate(13 9.48)"/>
</svg>
