<svg xmlns="http://www.w3.org/2000/svg" width="28" height="28" viewBox="0 0 28 28">
  <g id="组_28246" data-name="组 28246" transform="translate(-16 -8)">
    <g id="Ico-Rate" transform="translate(16 8)">
      <rect id="矩形_7957" data-name="矩形 7957" width="28" height="28" fill="none"/>
      <g id="组_28153" data-name="组 28153">
        <path id="路径_19306" data-name="路径 19306" d="M0,0H28V28H0ZM0,0H28V28H0Z" fill="none"/>
        <path id="路径_19307" data-name="路径 19307" d="M8.273,19h8.182a1.806,1.806,0,0,0,1.673-1.1l2.745-6.345A1.763,1.763,0,0,0,21,10.9V9.1a1.814,1.814,0,0,0-1.818-1.8H13.445l.864-4.113.027-.288a1.348,1.348,0,0,0-.4-.954L12.973,1,6.982,6.931A1.78,1.78,0,0,0,6.455,8.2v9A1.814,1.814,0,0,0,8.273,19Zm0-10.8,3.945-3.906L11,9.1h8.182v1.8l-2.727,6.3H8.273ZM1,8.2H4.636V19H1Z" transform="translate(0.268 -0.732)"/>
      </g>
    </g>
    <text id="OP" transform="translate(35 32)" font-size="6" font-family="NotoSansJP-Bold, Noto Sans JP" font-weight="700"><tspan x="-4.311" y="0">OP</tspan></text>
  </g>
</svg>
