<svg xmlns="http://www.w3.org/2000/svg" width="24" height="24" viewBox="0 0 24 24">
  <g id="组_28186" data-name="组 28186" transform="translate(-2048 22767)">
    <g id="组_28190" data-name="组 28190" transform="translate(105 9)">
      <g id="组_28181" data-name="组 28181" transform="translate(1943 -22776)">
        <g id="组_28178" data-name="组 28178">
          <rect id="矩形_7965" data-name="矩形 7965" width="24" height="24" fill="none"/>
        </g>
        <g id="组_28179" data-name="组 28179">
          <path id="路径_19604" data-name="路径 19604" d="M11,7v5.41l2.36,2.36,1.04-1.79L13,11.59V7Zm10,5A8.991,8.991,0,0,0,5,6.36V4H3v6H9V8H6.26A7,7,0,0,1,19,12ZM10.86,18.91A7.015,7.015,0,0,1,5.08,13H3.06A9,9,0,0,0,12,21h.07Z"/>
        </g>
      </g>
    </g>
    <g id="组_28191" data-name="组 28191" transform="translate(2061 -22754)">
      <g id="组_28187" data-name="组 28187">
        <rect id="矩形_7967" data-name="矩形 7967" width="2.522" height="1" transform="translate(5.523 4.909)"/>
        <rect id="矩形_7968" data-name="矩形 7968" width="2.52" height="1" transform="translate(5.523 6.179)"/>
        <path id="路径_19607" data-name="路径 19607" d="M11,4.5H8.5V3a1,1,0,0,0-1-1h-1a1,1,0,0,0-1,1V4.5H3a1,1,0,0,0-1,1V11a1,1,0,0,0,1,1h8a1,1,0,0,0,1-1V5.5A1,1,0,0,0,11,4.5Zm-4.5,0V3h1V5.5h-1ZM11,11H3V5.5H5.5a1,1,0,0,0,1,1h1a1,1,0,0,0,1-1H11Z" transform="translate(-2 -2)"/>
        <circle id="椭圆_4909" data-name="椭圆 4909" cx="1" cy="1" r="1" transform="translate(2.4 4.94)"/>
        <path id="路径_19608" data-name="路径 19608" d="M9.387,16.037a3.5,3.5,0,0,0-2.773,0A1,1,0,0,0,6,16.963v.287h4v-.287A1,1,0,0,0,9.387,16.037Z" transform="translate(-4.5 -8.739)"/>
      </g>
    </g>
  </g>
</svg>
